<svg width="763" height="584" viewBox="0 0 763 584" fill="none" xmlns="http://www.w3.org/2000/svg">
<path d="M724.13 508.263H-1.63745V508.626H724.13V508.263Z" fill="#BA4A00"/>
<path d="M456.564 518.153H419.609V518.516H456.564V518.153Z" fill="#BA4A00"/>
<path d="M659.455 526.011H571.88V526.374H659.455V526.011Z" fill="#BA4A00"/>
<path d="M411.748 518.334H321.27V518.697H411.748V518.334Z" fill="#BA4A00"/>
<path d="M262.601 529.199H243.672V529.562H262.601V529.199Z" fill="#BA4A00"/>
<path d="M367.174 529.199H280.988V529.562H367.174V529.199Z" fill="#BA4A00"/>
<path d="M130.326 523.067H74.5085V523.43H130.326V523.067Z" fill="#BA4A00"/>
<path d="M282.808 382.305H186.425L180.573 314.774H276.957L282.808 382.305Z" fill="#E6E6E6"/>
<path d="M287.8 382.305H191.418L185.567 314.774H281.949L287.8 382.305Z" fill="#F0F0F0"/>
<path d="M204.592 367.803L201.379 329.275H268.773L271.986 367.803H204.592Z" fill="white"/>
<path d="M308.045 382.304H198.586V396.206H308.045V382.304Z" fill="#F0F0F0"/>
<path d="M173.973 351.25V354.761H171.727L169.872 382.305H142.532L140.678 354.761H138.431V351.25H173.973Z" fill="#E6E6E6"/>
<path d="M151.324 320.085C151.792 313.337 162.562 300.936 188.464 306.573C207.195 310.65 214.158 300.936 214.158 300.936C214.158 300.936 212.423 328.353 184.255 336.596C157.506 344.424 150.498 331.953 151.324 320.085Z" fill="#E6E6E6"/>
<path d="M157.233 361.591C157.516 361.591 157.798 361.471 157.996 361.237C159.875 359.016 158.338 353.7 156.213 346.34C153.484 336.894 150.089 325.141 152.964 316.604C154.587 311.786 156.596 307.538 158.536 303.428C162.602 294.824 166.114 287.395 163.184 279.635C162.99 279.118 162.413 278.858 161.897 279.053C161.382 279.248 161.12 279.824 161.315 280.341C163.944 287.306 160.76 294.043 156.729 302.572C154.854 306.539 152.73 311.035 151.07 315.964C147.994 325.093 151.486 337.18 154.292 346.893C155.947 352.621 157.657 358.542 156.471 359.945C156.115 360.366 156.167 360.996 156.589 361.353C156.776 361.513 157.005 361.591 157.233 361.591Z" fill="#E6E6E6"/>
<path d="M581.656 206.074C571.797 284.81 502.841 363.428 427.02 414.062C231.002 545.951 41.6184 322.147 89.4058 241.765C125.277 160.229 237.15 182.627 284.743 150.574C552.248 -30.8506 590.937 140.178 581.656 206.074Z" fill="#407BFF"/>
<path d="M581.656 206.074C571.797 284.81 502.841 363.428 427.02 414.062C231.002 545.951 41.6184 322.147 89.4058 241.765C125.277 160.229 237.15 182.627 284.743 150.574C552.248 -30.8506 590.937 140.178 581.656 206.074Z" fill="#FFA061" fill-opacity="0.901961"/>
<path d="M361.246 573.852C516.679 573.852 642.683 566.49 642.683 557.408C642.683 548.326 516.679 540.964 361.246 540.964C205.813 540.964 79.8096 548.326 79.8096 557.408C79.8096 566.49 205.813 573.852 361.246 573.852Z" fill="#FFA061"/>
<path d="M361.188 477.256H155.07L143.789 145.604H349.907L361.188 477.256Z" fill="#BA4A00"/>
<path d="M371.475 466.964H165.357L154.075 135.312H360.193L371.475 466.964Z" fill="#FF6600"/>
<path d="M371.475 466.964H165.357L154.075 135.312H360.193L371.475 466.964Z" fill="white" fill-opacity="0.301961"/>
<path d="M302.433 271.806C324.504 249.346 323.568 212.617 300.342 189.77C277.116 166.923 240.395 166.61 218.324 189.07C196.253 211.53 197.19 248.259 220.416 271.106C243.642 293.953 280.363 294.266 302.433 271.806Z" fill="#FF6600"/>
<path d="M308.22 230.429C308.501 238.697 306.67 246.459 303.214 253.234C295.65 268.156 280.19 278.305 261.997 278.305C243.807 278.305 227.655 268.156 219.075 253.234C215.159 246.461 212.799 238.698 212.517 230.429C211.617 203.983 232.309 182.553 258.74 182.553C285.171 182.553 307.32 203.983 308.22 230.429Z" fill="white"/>
<path d="M303.212 253.234C295.648 268.156 280.188 278.305 261.996 278.305C243.805 278.305 227.654 268.156 219.074 253.234C230.847 245.183 245.143 240.481 260.708 240.481C276.276 240.481 290.892 245.181 303.212 253.234Z" fill="#FF6600" fill-opacity="0.6"/>
<path d="M274.514 199.099C265.975 190.699 252.475 190.584 244.361 198.841C236.246 207.098 236.591 220.601 245.13 229.001C253.669 237.401 267.168 237.516 275.283 229.258C283.397 221.001 283.053 207.498 274.514 199.099Z" fill="#FF6600" fill-opacity="0.6"/>
<path d="M330.073 346.861H198.587L197.698 320.72H329.185L330.073 346.861Z" fill="white"/>
<path d="M331.664 393.585H200.177L199.287 367.444H330.774L331.664 393.585Z" fill="white"/>
<path d="M280.915 371.037L249.23 375.347C247.928 375.524 247.072 376.711 247.318 377.971L251.478 399.215C251.726 400.485 252.991 401.373 254.292 401.198L285.978 396.887C287.28 396.71 288.138 395.532 287.89 394.263L283.73 373.019C283.483 371.757 282.217 370.86 280.915 371.037ZM271.811 392.558L266.075 393.34L265.497 386.484C264.277 385.945 263.392 384.861 263.143 383.585C262.737 381.508 264.138 379.584 266.268 379.293C268.39 379.004 270.453 380.458 270.861 382.535C271.11 383.811 270.685 385.072 269.734 385.907L271.811 392.558Z" fill="#FF6600"/>
<path d="M277.789 369.899C276.63 370.055 275.513 369.268 275.292 368.14L274.884 366.06C273.763 360.337 268.294 356.016 262.373 356.532C256.044 357.084 251.802 362.675 252.986 368.722L253.453 371.111C253.674 372.24 252.915 373.283 251.757 373.439C250.598 373.596 249.481 372.809 249.26 371.681L248.864 369.653C247.302 361.677 252.32 354.009 260.438 352.596C268.973 351.109 277.39 356.869 279.017 365.18L279.484 367.569C279.705 368.697 278.945 369.74 277.789 369.899Z" fill="#FF6600"/>
<path d="M309.959 430.19H224.371L223.793 413.173H309.38L309.959 430.19Z" fill="#FF6600"/>
<path d="M268.664 333.79C268.754 336.431 266.687 338.571 264.049 338.571C261.41 338.571 259.198 336.431 259.108 333.79C259.018 331.15 261.084 329.009 263.723 329.009C266.362 329.009 268.575 331.15 268.664 333.79Z" fill="#263238"/>
<path d="M248.092 333.79C248.182 336.431 246.115 338.571 243.476 338.571C240.837 338.571 238.625 336.431 238.535 333.79C238.445 331.15 240.512 329.009 243.151 329.009C245.79 329.009 248.002 331.15 248.092 333.79Z" fill="#263238"/>
<path d="M227.519 333.79C227.609 336.431 225.542 338.571 222.903 338.571C220.265 338.571 218.052 336.431 217.962 333.79C217.873 331.15 219.939 329.009 222.578 329.009C225.217 329.009 227.429 331.15 227.519 333.79Z" fill="#263238"/>
<path d="M289.237 333.79C289.327 336.431 287.26 338.571 284.621 338.571C281.982 338.571 279.77 336.431 279.68 333.79C279.59 331.15 281.657 329.009 284.296 329.009C286.935 329.009 289.147 331.15 289.237 333.79Z" fill="#263238"/>
<path d="M309.81 333.79C309.9 336.431 307.833 338.571 305.194 338.571C302.555 338.571 300.343 336.431 300.253 333.79C300.163 331.15 302.23 329.009 304.869 329.009C307.507 329.009 309.721 331.15 309.81 333.79Z" fill="#263238"/>
<path d="M483.044 206.019C484.979 209.12 486.579 212.095 488.24 215.184C489.893 218.243 491.388 221.39 492.855 224.56C495.742 230.926 498.326 237.493 500.257 244.502C500.515 245.362 500.713 246.274 500.927 247.166L501.245 248.51L501.403 249.181L501.592 250.287C502.007 253.238 501.643 255.645 501.139 257.768C500.098 262 498.421 265.375 496.622 268.596C492.951 274.973 488.666 280.405 483.724 285.548L477.611 280.918C480.625 275.197 483.604 269.202 485.794 263.437C486.855 260.571 487.747 257.653 488.009 255.258C488.135 254.081 488.051 253.068 487.888 252.692L487.315 250.917C487.077 250.188 486.865 249.464 486.577 248.729C484.486 242.869 481.825 236.983 478.929 231.179C476.074 225.398 472.91 219.512 469.795 214.018L483.044 206.019Z" fill="#FF8B7B"/>
<path d="M479.163 278.842L472.499 282.381L480.16 291.356C480.16 291.356 484.943 288.119 485.159 283.175L479.163 278.842Z" fill="#FF8B7B"/>
<path d="M463.53 287.916L471.74 294.432L480.16 291.358L472.497 282.383L463.53 287.916Z" fill="#FF8B7B"/>
<path d="M435.493 158.505C435.329 159.312 434.769 159.88 434.241 159.773C433.714 159.665 433.419 158.924 433.583 158.117C433.747 157.309 434.308 156.742 434.836 156.849C435.363 156.957 435.658 157.699 435.493 158.505Z" fill="#263238"/>
<path d="M434.843 159.896C434.843 159.896 432.062 164.18 429.586 166.017C430.743 167.641 433.294 167.525 433.294 167.525L434.843 159.896Z" fill="#FF5652"/>
<path d="M432.228 188.384L432.29 178.866L444.889 180.389C444.889 180.389 444.673 188.574 437.637 190.981L432.228 188.384Z" fill="#FF8B7B"/>
<path d="M435.849 172.011L444.721 174.561L444.891 180.389L432.29 178.866L435.849 172.011Z" fill="#FF8B7B"/>
<path d="M444.724 174.561L435.855 172.005L434.128 175.316C434.345 180.936 437.771 185.555 442.314 187.631C444.782 184.393 444.884 180.384 444.884 180.384L444.724 174.561Z" fill="black" fill-opacity="0.2"/>
<path d="M439.359 154.623C439.477 154.623 439.594 154.581 439.687 154.493C439.883 154.312 439.895 154.006 439.713 153.809C437.897 151.843 435.694 152.193 435.598 152.209C435.335 152.254 435.158 152.504 435.203 152.767C435.248 153.03 435.501 153.205 435.759 153.163C435.832 153.151 437.554 152.899 439.003 154.467C439.099 154.57 439.229 154.623 439.359 154.623Z" fill="#263238"/>
<path d="M457.905 173.2C456.441 180.674 455.557 191.027 460.782 196.014C460.782 196.014 458.74 203.595 444.862 203.595C429.6 203.595 437.52 196.942 437.52 196.942C443.863 194.973 443.808 187.743 442.356 181.936L457.905 173.2Z" fill="#FF8B7B"/>
<path d="M463.64 201.011C464.999 199.086 464.945 193.002 463.494 191.929C461.151 190.196 451.131 189.798 437.634 192.903C439.087 198.797 435.974 201.886 435.974 201.886L463.64 201.011Z" fill="#FF6600"/>
<path d="M509.005 545.788C507.98 546.01 506.957 546.068 506.464 545.648C506.256 545.471 506.048 545.135 506.23 544.524C506.326 544.203 506.535 543.964 506.853 543.813C508.232 543.155 511.399 544.446 511.534 544.501C511.622 544.537 511.68 544.622 511.683 544.718C511.687 544.813 511.633 544.901 511.547 544.943C511.062 545.176 510.034 545.566 509.005 545.788ZM507.344 544.156C507.24 544.179 507.146 544.209 507.061 544.25C506.87 544.342 506.749 544.477 506.694 544.663C506.565 545.098 506.726 545.235 506.78 545.28C507.328 545.747 509.368 545.316 510.803 544.741C509.828 544.398 508.252 543.96 507.344 544.156Z" fill="#407BFF"/>
<path d="M511.493 544.962C511.454 544.971 511.414 544.969 511.374 544.957C510.22 544.62 507.751 542.865 507.721 541.707C507.715 541.496 507.789 541.116 508.339 540.924C508.696 540.799 509.056 540.828 509.41 541.01C510.775 541.707 511.637 544.536 511.673 544.657C511.7 544.743 511.676 544.834 511.614 544.896C511.579 544.93 511.538 544.951 511.493 544.962ZM508.603 541.351C508.568 541.358 508.532 541.369 508.497 541.381C508.198 541.485 508.202 541.632 508.204 541.694C508.221 542.38 509.852 543.756 511.046 544.314C510.747 543.498 510.065 541.887 509.191 541.441C508.991 541.338 508.798 541.309 508.603 541.351Z" fill="#407BFF"/>
<path d="M433.627 547.502C432.316 547.502 431.05 547.322 430.626 546.732C430.478 546.526 430.361 546.175 430.647 545.675C430.806 545.395 431.065 545.204 431.413 545.109C433.113 544.647 436.681 546.68 436.832 546.767C436.919 546.818 436.965 546.917 436.949 547.016C436.934 547.114 436.856 547.194 436.758 547.215C436.106 547.345 434.848 547.502 433.627 547.502ZM432.007 545.521C431.837 545.521 431.679 545.538 431.54 545.576C431.316 545.637 431.162 545.748 431.067 545.915C430.895 546.215 430.958 546.365 431.02 546.449C431.495 547.11 434.076 547.124 435.974 546.856C435.026 546.371 433.2 545.521 432.007 545.521Z" fill="#407BFF"/>
<path d="M436.71 547.22C436.677 547.22 436.643 547.213 436.611 547.198C435.379 546.645 432.937 544.436 433.125 543.28C433.168 543.009 433.361 542.672 434.025 542.603C434.521 542.553 434.969 542.693 435.366 543.019C436.665 544.086 436.94 546.837 436.951 546.954C436.96 547.04 436.92 547.124 436.851 547.174C436.81 547.204 436.759 547.22 436.71 547.22ZM434.219 543.078C434.171 543.078 434.123 543.081 434.074 543.085C433.638 543.129 433.611 543.3 433.602 543.357C433.49 544.05 435.148 545.786 436.406 546.542C436.276 545.738 435.912 544.092 435.059 543.392C434.803 543.183 434.525 543.078 434.219 543.078Z" fill="#407BFF"/>
<path d="M447.938 546.978H437.727L436.711 523.323H446.92L447.938 546.978Z" fill="#FF8B7B"/>
<path d="M522.873 542.249L512.895 544.41L502.877 522.377L512.855 520.215L522.873 542.249Z" fill="#FF8B7B"/>
<path d="M511.936 543.408L523.146 540.979C523.554 540.891 523.969 541.099 524.143 541.478L528.035 549.926C528.438 550.801 527.904 551.83 526.958 552.017C523.03 552.797 521.079 552.98 516.148 554.047C513.114 554.703 506.267 556.374 502.08 557.28C497.983 558.167 496.448 554.162 498.081 553.415C505.405 550.068 508.465 547.119 510.448 544.372C510.806 543.877 511.339 543.537 511.936 543.408Z" fill="#263238"/>
<path d="M437.794 545.795H448.944C449.362 545.795 449.722 546.086 449.813 546.492L451.83 555.572C452.038 556.513 451.324 557.405 450.361 557.389C446.338 557.321 440.526 557.084 435.472 557.084C429.562 557.084 424.456 557.406 417.524 557.406C413.332 557.406 412.169 553.167 413.924 552.782C421.912 551.033 428.433 550.846 435.335 546.589C436.086 546.128 436.913 545.795 437.794 545.795Z" fill="#263238"/>
<path d="M479.063 198.323C488.632 200.518 496.522 224.959 496.522 224.959L477.307 239.613C477.307 239.613 470.253 232.96 467.115 220.735C463.825 207.924 469.278 196.079 479.063 198.323Z" fill="#407BFF"/>
<path d="M479.063 198.323C488.632 200.518 496.522 224.959 496.522 224.959L477.307 239.613C477.307 239.613 470.253 232.96 467.115 220.735C463.825 207.924 469.278 196.079 479.063 198.323Z" fill="#BA4A00" fill-opacity="0.4"/>
<path d="M428.745 227.492C426.358 230.07 423.977 232.363 421.511 234.723C420.287 235.897 419.036 237.047 417.757 238.175L415.83 239.865L415.345 240.284C415.109 240.486 414.823 240.726 414.517 240.96C413.879 241.432 413.179 241.982 411.713 242.617C410.936 242.916 409.938 243.312 408.183 243.347C407.348 243.36 406.216 243.215 405.134 242.805C404.03 242.396 402.961 241.687 402.23 240.958C400.712 239.432 400.253 238.093 399.954 237.197C399.677 236.273 399.597 235.614 399.54 235.037C399.449 233.911 399.507 233.148 399.569 232.442C399.638 231.745 399.734 231.142 399.839 230.573C400.266 228.334 400.87 226.527 401.524 224.718C402.188 222.927 402.922 221.208 403.78 219.469C404.702 217.619 405.592 216.277 406.479 214.73C410.066 208.733 414.275 203.254 418.747 198.092C423.316 192.964 428.113 188.275 433.627 183.98L438.97 189.479C435.216 194.503 431.526 199.886 428.117 205.196C424.71 210.545 421.55 215.991 418.83 221.528C418.203 222.897 417.429 224.395 416.994 225.539C416.484 226.79 416.017 228.133 415.632 229.456C415.252 230.763 414.946 232.126 414.808 233.124C414.776 233.365 414.76 233.576 414.76 233.698C414.755 233.81 414.785 233.873 414.77 233.563C414.755 233.395 414.74 233.144 414.583 232.612C414.406 232.107 414.13 231.15 412.908 229.912C412.318 229.333 411.433 228.726 410.516 228.397C409.629 228.05 408.702 227.948 408.071 227.952C406.729 227.982 406.129 228.256 405.732 228.399C405.02 228.706 405.006 228.789 405.013 228.758L405.571 228.249L407.314 226.652L410.784 223.4C413.08 221.235 415.392 218.925 417.573 216.782L428.745 227.492Z" fill="#FF8B7B"/>
<path d="M470.862 216.297C476.06 221.442 477.755 230.814 478.159 238.961L477.311 239.614C477.311 239.614 470.251 232.954 467.11 220.732C466.915 219.968 466.748 219.202 466.609 218.451L470.862 216.297Z" fill="black" fill-opacity="0.2"/>
<path d="M418.593 208.566C416.506 219.602 415.199 242.264 421.26 287.142H475.868C476.244 278.755 470.976 237.841 479.063 198.323C479.063 198.323 469.702 196.444 460.782 196.014C453.804 195.677 443.702 195.455 437.568 196.015C435.007 196.249 432.494 196.62 430.255 197.016C424.35 198.06 419.708 202.671 418.593 208.566Z" fill="#407BFF"/>
<path d="M418.593 208.566C416.506 219.602 415.199 242.264 421.26 287.142H475.868C476.244 278.755 470.976 237.841 479.063 198.323C479.063 198.323 469.702 196.444 460.782 196.014C453.804 195.677 443.702 195.455 437.568 196.015C435.007 196.249 432.494 196.62 430.255 197.016C424.35 198.06 419.708 202.671 418.593 208.566Z" fill="#FF6600" fill-opacity="0.4"/>
<path d="M426.95 224.877L417.082 222.512C416.776 228.491 416.749 235.902 417.194 245.066C421.739 239.893 427.534 231.829 426.95 224.877Z" fill="black" fill-opacity="0.2"/>
<path d="M436.713 523.328L437.235 535.522H447.45L446.928 523.328H436.713Z" fill="black" fill-opacity="0.2"/>
<path d="M512.86 520.221L502.877 522.383L508.046 533.74L518.029 531.578L512.86 520.221Z" fill="black" fill-opacity="0.2"/>
<path d="M462.758 162.267C460.135 172.06 459.097 177.925 453.057 181.997C443.972 188.121 432.662 181.092 432.308 170.712C431.99 161.37 436.333 146.926 446.834 144.952C457.182 143.009 465.381 152.475 462.758 162.267Z" fill="#FF8B7B"/>
<path d="M439.842 162.644C439.357 161.331 437.096 151.212 439.218 148.584C441.342 145.957 465.507 147.846 469.081 151.365C475.009 157.202 470.896 162.411 464.407 169.132C459.525 174.186 459.338 179.884 456.876 180.719C452.562 182.184 445.872 180.808 444.531 176.199C443.19 171.593 439.842 162.644 439.842 162.644Z" fill="#263238"/>
<path d="M466.154 139.855C457.612 136.215 441.599 140.241 432.951 138.155C432.641 142.635 435.344 149.82 443.991 151.751C443.991 151.751 456.267 154.146 465.764 153.76C475.261 153.374 473.408 142.945 466.154 139.855Z" fill="#263238"/>
<path d="M467.49 151.675C467.49 151.675 472.772 152.27 476.521 149.941C478.125 153.802 469.345 154.863 467.49 151.675Z" fill="#263238"/>
<path d="M444.498 163.046C444.339 165.696 443.11 168.19 441.63 169.822C439.404 172.275 437.082 170.749 436.687 167.76C436.331 165.07 437.061 160.552 439.783 159.2C442.464 157.866 444.678 160.015 444.498 163.046Z" fill="#FF8B7B"/>
<path d="M440.631 287.142C440.631 287.142 452.217 365.206 458.579 394.452C465.545 426.479 502.896 532.439 502.896 532.439L521.172 528.48C521.172 528.48 495.054 442.13 489.207 397.355C484.716 362.962 475.868 287.142 475.868 287.142H440.631Z" fill="#FF6600"/>
<path d="M498.519 526.335C498.441 526.352 501.926 532.947 501.926 532.947L522.488 528.493L520.755 522.308L498.519 526.335Z" fill="#263238"/>
<path d="M447.954 314.956C461.351 317.584 459.933 367.572 458.322 393.281C454.458 375.107 448.803 340.137 444.939 315.317C445.827 314.873 446.829 314.733 447.954 314.956Z" fill="#BA4A00" fill-opacity="0.301961"/>
<path d="M421.26 287.142C421.26 287.142 419.854 363.517 420.964 394.667C422.119 427.069 433.431 533.161 433.431 533.161H450.726C450.726 533.161 451.36 428.963 452.13 397.14C452.969 362.45 457.155 287.142 457.155 287.142H421.26Z" fill="#FF6600"/>
<path d="M430.102 526.268C430.023 526.268 431.078 533.452 431.078 533.452H452.117L452.686 527.041L430.102 526.268Z" fill="#263238"/>
<path d="M439.995 211.917C444.891 225.116 416.129 240.665 416.129 240.665L403.677 224.649C403.677 224.649 411.985 208.108 422.179 200.65C434.771 191.438 436.268 201.868 439.995 211.917Z" fill="#407BFF"/>
<path d="M439.995 211.917C444.891 225.116 416.129 240.665 416.129 240.665L403.677 224.649C403.677 224.649 411.985 208.108 422.179 200.65C434.771 191.438 436.268 201.868 439.995 211.917Z" fill="#BA4A00" fill-opacity="0.4"/>
<path d="M552.667 111.696C581.597 111.696 605.049 96.7416 605.049 78.2939C605.049 59.8463 581.597 44.8916 552.667 44.8916C523.738 44.8916 500.286 59.8463 500.286 78.2939C500.286 96.7416 523.738 111.696 552.667 111.696Z" fill="#BA4A00"/>
<path d="M533.755 95.1071C530.845 95.1071 528.004 94.2358 525.537 92.5523C522.227 90.2954 520.028 86.8738 519.345 82.9176C518.041 75.3557 523.061 67.8212 530.535 66.1222C536.689 64.7266 542.94 67.351 546.245 72.6824L579.873 65.7388C582.597 65.1769 585.365 66.802 586.036 69.365C586.391 70.7273 586.181 72.1347 585.441 73.3283C584.699 74.522 583.535 75.3341 582.16 75.6187L581.277 75.8016C581.013 75.8553 580.799 76.015 580.671 76.2505C580.543 76.483 580.524 76.7575 580.62 77.0042L581.212 78.5464C581.614 79.5905 581.24 80.7656 580.318 81.3389C579.601 81.7862 579.113 82.5531 579.016 83.3925C578.897 84.4205 578.211 85.2122 577.268 85.4067L576.576 85.5489C575.637 85.7405 574.693 85.2902 574.175 84.3927C573.568 83.3442 572.364 82.8041 571.173 83.0508C569.979 83.2978 569.08 84.272 568.935 85.4763C568.812 86.506 568.125 87.296 567.186 87.4889L566.508 87.6284C565.578 87.8216 564.626 87.3686 564.107 86.4724C563.682 85.7405 562.927 85.2291 562.087 85.1044C561.014 84.9445 560.203 84.0152 560.158 82.8939L560.091 81.2429C560.081 80.9741 559.959 80.7358 559.748 80.5721C559.538 80.4064 559.285 80.3472 559.012 80.3993L548.297 82.6128C547.388 88.6875 542.812 93.5514 536.756 94.8018C535.756 95.004 534.751 95.1071 533.755 95.1071ZM530.855 67.5385C524.121 69.0692 519.6 75.8586 520.777 82.6715C521.391 86.2366 523.372 89.3187 526.355 91.3532C529.338 93.3876 532.927 94.1067 536.464 93.3762C542.074 92.2174 546.279 87.6137 546.924 81.9205L546.983 81.3976L558.719 78.974C559.397 78.8332 560.098 78.9986 560.642 79.4254C561.186 79.8511 561.513 80.4916 561.542 81.1828L561.609 82.8339C561.625 83.2522 561.922 83.6111 562.3 83.6659C563.593 83.8591 564.708 84.6156 565.362 85.7427C565.522 86.0186 565.826 86.2841 566.216 86.2044L566.894 86.065C567.279 85.9853 567.457 85.6191 567.495 85.3025C567.711 83.4785 569.073 82.0015 570.881 81.6285C572.684 81.2565 574.511 82.0755 575.432 83.6646C575.592 83.9405 575.894 84.2093 576.284 84.1263L576.978 83.9841C577.362 83.9044 577.539 83.5399 577.574 83.2249C577.725 81.9292 578.448 80.7937 579.554 80.1068C579.88 79.9049 580.009 79.4592 579.859 79.0698L579.267 77.526C579.019 76.8795 579.067 76.1623 579.399 75.5551C579.731 74.9496 580.309 74.5214 580.987 74.382L581.869 74.1991C582.85 73.9972 583.681 73.4162 584.209 72.5667C584.737 71.7155 584.888 70.7104 584.634 69.7375C584.155 67.9108 582.148 66.7548 580.167 67.1671L545.52 74.3208L545.259 73.8648C542.351 68.7832 536.571 66.2387 530.855 67.5385ZM533.774 89.7382C531.977 89.7382 530.219 89.215 528.682 88.2042C526.607 86.8378 525.188 84.7463 524.688 82.3137C524.184 79.8768 524.658 77.392 526.024 75.318C527.389 73.2456 529.481 71.8282 531.914 71.3258C534.349 70.8217 536.833 71.2952 538.904 72.6589C540.975 74.0212 542.392 76.1151 542.894 78.5537C543.398 80.9864 542.923 83.4697 541.562 85.5437C540.199 87.6205 538.105 89.0406 535.668 89.5433C535.038 89.674 534.404 89.7382 533.774 89.7382ZM533.818 72.5822C533.282 72.5822 532.744 72.6373 532.206 72.7479C530.154 73.1719 528.389 74.3683 527.238 76.117C526.087 77.8671 525.687 79.9627 526.11 82.0206C526.534 84.0728 527.73 85.8374 529.482 86.9904C531.232 88.142 533.327 88.5442 535.379 88.1202C537.435 87.6961 539.2 86.4964 540.351 84.745C541.501 82.9951 541.9 80.9009 541.476 78.846C541.051 76.7881 539.856 75.0205 538.108 73.8706C536.815 73.0235 535.333 72.5822 533.818 72.5822Z" fill="white"/>
<path d="M527.238 120.301C527.238 114.237 519.53 109.322 510.021 109.322C500.513 109.322 492.805 114.237 492.805 120.301C492.805 126.364 500.513 131.28 510.021 131.28C519.53 131.28 527.238 126.364 527.238 120.301Z" fill="white" fill-opacity="0.6"/>
<path d="M489.704 131.279C489.704 128.79 486.54 126.772 482.637 126.772C478.733 126.772 475.569 128.79 475.569 131.279C475.569 133.768 478.733 135.785 482.637 135.785C486.54 135.785 489.704 133.768 489.704 131.279Z" fill="white" fill-opacity="0.301961"/>
</svg>
