<svg width="708" height="598" viewBox="0 0 708 598" fill="none" xmlns="http://www.w3.org/2000/svg">
<g clip-path="url(#clip0_27_330)">
<path d="M691.141 516.223H65.0718V516.586H691.141V516.223Z" fill="#BA4A00"/>
<path d="M628.41 539.605H601.265V539.968H628.41V539.605Z" fill="#BA4A00"/>
<path d="M496.643 532.069H453.933V532.432H496.643V532.069Z" fill="#BA4A00"/>
<path d="M617.404 526.115H561.652V526.479H617.404V526.115Z" fill="#BA4A00"/>
<path d="M281.711 533.44H267.764V533.803H281.711V533.44Z" fill="#BA4A00"/>
<path d="M256.616 533.44H208.548V533.803H256.616V533.44Z" fill="#BA4A00"/>
<path d="M182.775 527.307H148.097V527.67H182.775V527.307Z" fill="#BA4A00"/>
<path d="M209.04 214.4C223.501 214.4 235.223 200.8 235.223 184.023C235.223 167.246 223.501 153.646 209.04 153.646L205.828 153.646V214.398H209.04V214.4Z" fill="#E0E0E0"/>
<path d="M205.828 214.399C220.289 214.399 232.012 200.799 232.012 184.022C232.012 167.246 220.289 153.646 205.828 153.646C191.368 153.646 179.645 167.246 179.645 184.022C179.645 200.799 191.368 214.399 205.828 214.399Z" fill="#BA4A00"/>
<path d="M204.629 187.84C185.303 187.84 169.58 169.599 169.58 147.178V122.884C169.58 120.774 171.054 119.066 172.871 119.066C174.688 119.066 176.161 120.776 176.161 122.884V147.178C176.161 165.389 188.932 180.204 204.628 180.204C206.445 180.204 207.918 181.914 207.918 184.021C207.918 186.129 206.446 187.84 204.629 187.84Z" fill="#BA4A00"/>
<path d="M143.746 144.273H201.997C205.989 144.273 208.899 139.887 207.877 135.41L202.824 113.279C202.118 110.185 199.704 108.029 196.946 108.029H148.8C146.04 108.029 143.627 110.183 142.921 113.279L137.868 135.41C136.844 139.886 139.754 144.273 143.746 144.273Z" fill="#FFA061"/>
<path d="M578.795 214.4C593.256 214.4 604.979 200.8 604.979 184.023C604.979 167.246 593.256 153.646 578.795 153.646L575.583 153.646V214.398H578.795V214.4Z" fill="#BA4A00"/>
<path d="M575.583 214.399C590.044 214.399 601.767 200.799 601.767 184.022C601.767 167.246 590.044 153.646 575.583 153.646C561.123 153.646 549.4 167.246 549.4 184.022C549.4 200.799 561.123 214.399 575.583 214.399Z" fill="#FFA061"/>
<path d="M574.384 187.84C555.058 187.84 539.335 169.599 539.335 147.178V122.884C539.335 120.774 540.809 119.066 542.626 119.066C544.444 119.066 545.917 120.776 545.917 122.884V147.178C545.917 165.389 558.687 180.204 574.383 180.204C576.201 180.204 577.674 181.914 577.674 184.021C577.674 186.129 576.201 187.84 574.384 187.84Z" fill="#BA4A00"/>
<path d="M513.501 144.273H571.752C575.744 144.273 578.654 139.887 577.631 135.41L572.579 113.279C571.872 110.185 569.458 108.029 566.7 108.029H518.554C515.794 108.029 513.381 110.183 512.675 113.279L507.622 135.41C506.6 139.886 509.51 144.273 513.501 144.273Z" fill="#FFA061"/>
<path d="M251.875 333.95H232.834V419.556H251.875V333.95Z" fill="#E6E6E6"/>
<path d="M291.057 415.612H292.508C292.493 412.146 292.515 403.353 292.66 383.2C292.921 346.674 293.422 344.447 293.422 344.447L289.968 361.31C287.778 379.982 290.601 398.745 291.057 415.612Z" fill="#E6E6E6"/>
<path d="M288.19 358.798C283.219 351.925 272.6 349.925 261.726 348.214C257.457 347.543 272.944 358.859 280.513 366.898C286.393 373.141 290.153 374.867 291.768 381.091C292.609 373.329 292.473 364.719 288.19 358.798Z" fill="#E6E6E6"/>
<path d="M294.784 371.082C299.754 364.209 310.374 362.207 321.248 360.498C325.517 359.827 310.03 371.143 302.461 379.182C296.581 385.425 292.821 387.151 291.207 393.375C290.364 385.614 290.501 377.004 294.784 371.082Z" fill="#E6E6E6"/>
<path d="M292.655 342.832C296.382 334.617 305.76 326.883 316.283 323.948C320.414 322.797 306.713 339.117 301.505 349.642C297.46 357.818 292.094 367.421 291.26 374.32C290.002 360.653 288.929 351.046 292.655 342.832Z" fill="#E6E6E6"/>
<path d="M292.216 419.555C287.776 419.555 284.107 416.973 283.852 413.67L283.112 408.026H301.319L300.579 413.67C300.325 416.973 296.656 419.555 292.216 419.555Z" fill="#F0F0F0"/>
<path d="M302.499 410.198H281.933L281.344 403.909H303.087L302.499 410.198Z" fill="#F0F0F0"/>
<path d="M477.96 77.7966H277.359V290.079H477.96V77.7966Z" fill="#BA4A00"/>
<path d="M475.998 77.7966H272.845V290.079H475.998V77.7966Z" fill="#BA4A00"/>
<path d="M467.895 280.568L467.895 87.3054L280.949 87.3054V280.568H467.895Z" fill="#FAFAFA"/>
<path d="M444.956 280.569L371.377 87.3064H346.386L419.964 280.569H444.956Z" fill="white"/>
<path d="M412.88 280.569L339.302 87.3064H322.093L395.67 280.569H412.88Z" fill="white"/>
<path d="M350.363 280.57L350.363 87.3064H340.695L340.695 280.57H350.363Z" fill="#E6E6E6"/>
<path d="M414.623 280.57L414.623 87.3059H404.955L404.955 280.57H414.623Z" fill="#E6E6E6"/>
<path d="M348.619 286.602L348.619 80.2355H336.399L336.399 286.602H348.619Z" fill="#F5F5F5"/>
<path d="M412.879 286.601L412.879 80.2346H400.659L400.659 286.601H412.879Z" fill="#F5F5F5"/>
<path d="M281.808 280.568L281.808 87.3057H280.948L280.948 280.568H281.808Z" fill="#E6E6E6"/>
<path d="M269.442 65.5669H486.769C487.344 65.5669 487.815 66.1129 487.815 66.7799C487.815 67.447 487.344 67.993 486.769 67.993H269.442C268.867 67.993 268.396 67.447 268.396 66.7799C268.398 66.1115 268.867 65.5669 269.442 65.5669Z" fill="#BA4A00"/>
<path d="M477.959 73.5684C478.736 73.5684 479.371 72.8321 479.371 71.9312V68.4156C479.371 67.5149 478.736 66.7783 477.959 66.7783C477.183 66.7783 476.548 67.5149 476.548 68.4156V71.9312C476.548 72.8321 477.183 73.5684 477.959 73.5684Z" fill="#FFA061"/>
<path d="M285.202 73.5684C285.979 73.5684 286.614 72.8321 286.614 71.9312V68.4156C286.614 67.5149 285.979 66.7783 285.202 66.7783C284.426 66.7783 283.791 67.5149 283.791 68.4156V71.9312C283.793 72.8321 284.428 73.5684 285.202 73.5684Z" fill="#E6E6E6"/>
<path d="M472.781 66.7797H269.777V233.019H472.781V66.7797Z" fill="#FFA061" fill-opacity="0.6"/>
<path d="M491.157 372.806H456.159C452.436 372.806 449.419 369.305 449.419 364.988V346.195C449.419 341.876 452.437 338.376 456.159 338.376H491.157C494.879 338.376 497.896 341.878 497.896 346.195V364.988C497.896 369.305 494.878 372.806 491.157 372.806Z" fill="#FAFAFA"/>
<path d="M495.633 339.389H451.682C450.432 339.389 449.419 338.214 449.419 336.764V334.64C449.419 333.191 450.432 332.015 451.682 332.015H495.633C496.883 332.015 497.896 333.191 497.896 334.64V336.764C497.896 338.214 496.883 339.389 495.633 339.389Z" fill="#E6E6E6"/>
<path d="M505.579 410.987C505.579 410.987 506.214 435.193 530.53 435.193C554.847 435.193 555.482 410.987 555.482 410.987H505.579Z" fill="#F0F0F0"/>
<path d="M543.448 372.806H495.353C490.238 372.806 486.092 367.996 486.092 362.061V333.526C486.092 327.592 490.238 322.782 495.353 322.782H543.448C548.564 322.782 552.709 327.593 552.709 333.526V362.061C552.709 367.995 548.564 372.806 543.448 372.806Z" fill="#F0F0F0"/>
<path d="M549.6 324.173H489.201C487.484 324.173 486.092 322.558 486.092 320.567V317.648C486.092 315.656 487.484 314.041 489.201 314.041H549.6C551.317 314.041 552.709 315.656 552.709 317.648V320.567C552.709 322.56 551.318 324.173 549.6 324.173Z" fill="#F5F5F5"/>
<path d="M579.86 372.806H409.969V396.169H579.86V372.806Z" fill="#F5F5F5"/>
<path d="M595.971 346.139C608.599 413.009 573.32 456.143 524.459 454.144C501.026 453.185 473.061 423.306 450.049 416.644C420.029 407.954 394.011 419.219 365.293 420.867C293.865 424.963 294.802 391.145 246.666 347.541C212.824 316.887 158.308 320.247 140.198 266.565C118.065 200.957 181.502 169.259 229.727 178.973C285.116 190.13 300.46 110.116 385.073 118.979C468.308 127.698 578.181 245.421 595.971 346.139Z" fill="#407BFF"/>
<path d="M595.971 346.139C608.599 413.009 573.32 456.143 524.459 454.144C501.026 453.185 473.061 423.306 450.049 416.644C420.029 407.954 394.011 419.219 365.293 420.867C293.865 424.963 294.802 391.145 246.666 347.541C212.824 316.887 158.308 320.247 140.198 266.565C118.065 200.957 181.502 169.259 229.727 178.973C285.116 190.13 300.46 110.116 385.073 118.979C468.308 127.698 578.181 245.421 595.971 346.139Z" fill="#FFA061" fill-opacity="0.901961"/>
<path d="M378.106 581.83C512.188 581.83 620.882 574.466 620.882 565.381C620.882 556.297 512.188 548.933 378.106 548.933C244.025 548.933 135.33 556.297 135.33 565.381C135.33 574.466 244.025 581.83 378.106 581.83Z" fill="#FFA061"/>
<path d="M391.146 491.67H231.406C226.128 491.67 221.629 486.706 221.357 480.583L207.06 158.742C206.789 152.619 210.847 147.655 216.125 147.655H375.865C381.143 147.655 385.642 152.619 385.913 158.742L400.21 480.583C400.482 486.706 396.424 491.67 391.146 491.67Z" fill="#407BFF"/>
<path d="M391.146 491.67H231.406C226.128 491.67 221.629 486.706 221.357 480.583L207.06 158.742C206.789 152.619 210.847 147.655 216.125 147.655H375.865C381.143 147.655 385.642 152.619 385.913 158.742L400.21 480.583C400.482 486.706 396.424 491.67 391.146 491.67Z" fill="#FF6600" fill-opacity="0.8"/>
<path d="M398.014 471.257H245.24C240.192 471.257 235.888 466.509 235.629 460.653L221.956 152.845C221.695 146.989 225.577 142.242 230.624 142.242H383.4C388.448 142.242 392.751 146.989 393.01 152.845L406.684 460.653C406.943 466.509 403.061 471.257 398.014 471.257Z" fill="#FFA061"/>
<path d="M398.014 464.175H245.24C243.459 464.175 241.817 462.359 241.725 460.289L228.051 152.481C228.002 151.358 228.393 150.632 228.73 150.22C229.064 149.811 229.665 149.324 230.626 149.324H383.4C385.181 149.324 386.824 151.14 386.916 153.21L400.59 461.018C400.639 462.143 400.248 462.869 399.911 463.28C399.574 463.688 398.973 464.175 398.014 464.175ZM230.623 149.687C229.774 149.687 229.247 150.113 228.955 150.47C228.661 150.83 228.319 151.468 228.363 152.462L242.037 460.27C242.121 462.155 243.617 463.812 245.238 463.812H398.013C398.862 463.812 399.387 463.386 399.68 463.029C399.975 462.669 400.318 462.031 400.274 461.036L386.601 153.227C386.517 151.34 385.021 149.686 383.398 149.686H230.623V149.687Z" fill="#BA4A00"/>
<path d="M342.059 185.62C323.288 164.399 293.987 163.963 276.614 184.647C259.241 205.331 260.375 239.302 279.146 260.523C297.917 281.743 327.217 282.179 344.59 261.495C361.963 240.811 360.83 206.84 342.059 185.62Z" fill="#FF6600" fill-opacity="0.301961"/>
<path d="M348.021 223.097C348.354 230.594 347.028 237.632 344.417 243.774C338.706 257.304 326.756 266.507 312.53 266.507C298.305 266.507 285.537 257.304 278.624 243.774C275.469 237.632 273.517 230.594 273.183 223.097C272.118 199.117 288.005 179.685 308.673 179.685C329.341 179.685 346.956 199.117 348.021 223.097Z" fill="white"/>
<path d="M344.418 243.774C338.707 257.304 326.756 266.507 312.531 266.507C298.305 266.507 285.537 257.304 278.624 243.774C287.72 236.473 298.835 232.21 311.007 232.21C323.179 232.21 334.673 236.474 344.418 243.774Z" fill="#FF6600"/>
<path d="M322.193 222.07C328.454 214.616 328.045 202.373 321.28 194.725C314.515 187.077 303.956 186.92 297.695 194.375C291.433 201.829 291.842 214.072 298.607 221.719C305.372 229.367 315.932 229.524 322.193 222.07Z" fill="#FF6600"/>
<path d="M376.119 351.523H256.497C254.361 351.523 252.54 349.514 252.431 347.036L251.524 326.643C251.414 324.165 253.057 322.156 255.193 322.156H374.814C376.951 322.156 378.771 324.165 378.882 326.643L379.788 347.036C379.897 349.514 378.255 351.523 376.119 351.523Z" fill="white"/>
<path d="M339.487 310.957H289.527C287.391 310.957 285.57 308.948 285.461 306.47L285.268 302.141C285.157 299.663 286.801 297.654 288.937 297.654H338.896C341.032 297.654 342.852 299.663 342.962 302.141L343.155 306.47C343.264 308.948 341.623 310.957 339.487 310.957Z" fill="black" fill-opacity="0.301961"/>
<path d="M358.064 449.268H283.235C279.598 449.268 276.496 445.847 276.31 441.627L275.865 431.615C275.678 427.395 278.475 423.973 282.112 423.973L356.941 423.974C360.579 423.974 363.68 427.395 363.867 431.615L364.311 441.627C364.499 445.847 361.702 449.268 358.064 449.268Z" fill="black" fill-opacity="0.301961"/>
<path d="M378.303 400.676H258.681C256.545 400.676 254.724 398.667 254.614 396.189L253.709 375.796C253.599 373.317 255.242 371.308 257.378 371.308H376.999C379.136 371.308 380.956 373.317 381.066 375.796L381.973 396.189C382.081 398.667 380.439 400.676 378.303 400.676Z" fill="white"/>
<path d="M271.71 336.84C271.831 339.584 270.013 341.806 267.649 341.806C265.285 341.806 263.269 339.582 263.146 336.84C263.025 334.097 264.843 331.873 267.207 331.873C269.571 331.873 271.587 334.097 271.71 336.84Z" fill="#263238"/>
<path d="M284.866 336.84C284.987 339.584 283.169 341.806 280.805 341.806C278.441 341.806 276.425 339.582 276.303 336.84C276.181 334.097 277.999 331.873 280.363 331.873C282.727 331.873 284.744 334.097 284.866 336.84Z" fill="#263238"/>
<path d="M298.022 336.84C298.144 339.584 296.326 341.806 293.962 341.806C291.597 341.806 289.582 339.582 289.459 336.84C289.337 334.097 291.155 331.873 293.519 331.873C295.884 331.873 297.901 334.097 298.022 336.84Z" fill="#263238"/>
<path d="M311.179 336.84C311.3 339.584 309.482 341.806 307.118 341.806C304.753 341.806 302.738 339.582 302.615 336.84C302.494 334.097 304.312 331.873 306.676 331.873C309.041 331.873 311.057 334.097 311.179 336.84Z" fill="#263238"/>
<path d="M273.892 385.992C274.013 388.736 272.196 390.959 269.831 390.959C267.467 390.959 265.452 388.735 265.329 385.992C265.207 383.249 267.025 381.026 269.389 381.026C271.754 381.026 273.771 383.248 273.892 385.992Z" fill="#263238"/>
<path d="M287.049 385.992C287.171 388.736 285.353 390.959 282.989 390.959C280.623 390.959 278.609 388.735 278.486 385.992C278.365 383.249 280.183 381.026 282.547 381.026C284.911 381.026 286.927 383.248 287.049 385.992Z" fill="#263238"/>
<path d="M300.206 385.992C300.327 388.736 298.509 390.959 296.145 390.959C293.781 390.959 291.765 388.735 291.642 385.992C291.521 383.249 293.339 381.026 295.703 381.026C298.068 381.024 300.084 383.248 300.206 385.992Z" fill="#263238"/>
<path d="M313.362 385.992C313.483 388.736 311.665 390.959 309.301 390.959C306.937 390.959 304.922 388.735 304.798 385.992C304.677 383.249 306.495 381.026 308.859 381.026C311.224 381.024 313.241 383.248 313.362 385.992Z" fill="#263238"/>
<path d="M326.518 385.992C326.64 388.736 324.822 390.959 322.458 390.959C320.093 390.959 318.078 388.735 317.955 385.992C317.833 383.249 319.651 381.026 322.015 381.026C324.38 381.026 326.397 383.248 326.518 385.992Z" fill="#263238"/>
<path d="M339.676 385.992C339.797 388.736 337.979 390.959 335.615 390.959C333.25 390.959 331.235 388.735 331.112 385.992C330.991 383.249 332.809 381.026 335.173 381.026C337.537 381.026 339.553 383.248 339.676 385.992Z" fill="#263238"/>
<path d="M482.073 217.301C482.387 217.84 482.546 218.136 482.753 218.524L483.312 219.61C483.675 220.329 483.993 221.047 484.314 221.764C484.94 223.201 485.532 224.638 486.062 226.092C487.135 228.996 488.015 231.964 488.776 234.95C490.319 240.919 491.261 247.038 491.744 253.16L491.841 254.306C491.858 254.47 491.871 254.73 491.881 254.999L491.908 255.78C491.925 256.812 491.881 257.835 491.757 258.801C491.521 260.748 491.07 262.547 490.515 264.21C489.389 267.522 487.842 270.336 486.183 272.897C482.788 277.998 478.932 282.08 474.527 285.698L471.079 281.01C474.173 276.859 477.171 272.256 479.393 267.661C480.526 265.371 481.393 263.007 481.932 260.805C482.185 259.704 482.322 258.645 482.343 257.69C482.372 257.208 482.342 256.762 482.302 256.339L482.264 256.029C482.256 255.934 482.246 255.83 482.213 255.633L482.055 254.611C481.237 249.157 480.118 243.802 478.652 238.626C477.932 236.031 477.042 233.524 476.139 231.062C475.692 229.825 475.199 228.627 474.693 227.456L473.915 225.749L473.53 224.94L473.212 224.307L482.073 217.301Z" fill="#FF8B7B"/>
<path d="M470.384 285.792L474.918 296.898L478.513 287.507C478.513 287.507 475.326 279.372 471.014 280.115L470.384 285.792Z" fill="#FF8B7B"/>
<path d="M478.167 297.45L481.767 290.601L478.514 287.508L474.918 296.9L478.167 297.45Z" fill="#FF8B7B"/>
<path d="M457.785 553.73C458.754 553.73 459.814 553.497 460.555 553.294C460.651 553.268 460.725 553.176 460.743 553.064C460.76 552.951 460.717 552.836 460.635 552.774C460.276 552.499 457.09 550.114 455.871 550.755C455.678 550.856 455.435 551.079 455.376 551.565C455.297 552.21 455.436 552.726 455.788 553.098C456.234 553.57 456.978 553.73 457.785 553.73ZM459.852 552.883C458.027 553.307 456.653 553.233 456.122 552.671C455.896 552.433 455.813 552.096 455.868 551.645C455.897 551.402 455.994 551.321 456.074 551.28C456.718 550.936 458.554 551.972 459.852 552.883Z" fill="#407BFF"/>
<path d="M460.497 553.301C460.54 553.301 460.583 553.288 460.622 553.262C460.698 553.209 460.746 553.115 460.746 553.013C460.746 552.863 460.732 549.361 459.592 548.19C459.289 547.878 458.934 547.749 458.54 547.805C457.918 547.893 457.749 548.347 457.703 548.609C457.467 549.98 459.374 552.605 460.374 553.263C460.413 553.29 460.456 553.301 460.497 553.301ZM458.713 548.37C458.917 548.37 459.097 548.452 459.262 548.622C459.942 549.322 460.176 551.288 460.234 552.455C459.237 551.531 458.048 549.559 458.191 548.723C458.215 548.586 458.283 548.422 458.6 548.378C458.639 548.372 458.676 548.37 458.713 548.37Z" fill="#407BFF"/>
<path d="M445.96 547.802C446.018 547.728 446.041 547.624 446.015 547.525C445.985 547.407 445.894 547.326 445.789 547.319C445.27 547.29 440.768 547.072 439.755 548.345C439.733 548.372 439.713 548.401 439.694 548.43C439.525 548.695 439.489 549.006 439.588 549.331C439.754 549.874 440.062 550.23 440.5 550.389C441.958 550.913 444.524 549.017 445.924 547.841C445.937 547.829 445.949 547.816 445.96 547.802ZM440.13 548.724C440.688 548.022 443.165 547.832 445.026 547.868C443.075 549.402 441.465 550.133 440.648 549.839C440.363 549.736 440.169 549.507 440.056 549.139C440.012 548.997 440.024 548.884 440.092 548.776C440.104 548.757 440.116 548.74 440.13 548.724Z" fill="#FF6600"/>
<path d="M445.96 547.802C445.972 547.788 445.982 547.771 445.992 547.752C446.036 547.663 446.037 547.555 445.995 547.465C445.936 547.343 444.536 544.486 442.88 543.967C442.372 543.809 441.891 543.88 441.449 544.182C440.853 544.587 440.82 545.055 440.895 545.374C441.215 546.72 444.408 547.906 445.779 547.896C445.848 547.894 445.913 547.859 445.96 547.802ZM441.463 544.89C441.515 544.826 441.59 544.755 441.701 544.679C442.028 544.457 442.37 544.406 442.749 544.524C443.837 544.864 444.862 546.479 445.315 547.287C443.835 547.091 441.565 546.029 441.373 545.221C441.362 545.172 441.334 545.052 441.463 544.89Z" fill="#FF6600"/>
<path d="M459.745 174.746C458.525 181.965 455.784 197.717 460.138 202.535C460.138 202.535 458.436 209.86 446.873 209.86C434.157 209.86 440.796 202.537 440.796 202.537C447.737 200.614 447.558 194.64 446.348 189.03L459.745 174.746Z" fill="#FF8B7B"/>
<path d="M438.553 157.717C438.629 157.717 438.704 157.697 438.775 157.656C439.021 157.514 439.119 157.168 438.997 156.882C437.766 154.032 435.49 153.701 435.393 153.688C435.122 153.65 434.875 153.879 434.844 154.196C434.812 154.511 435.008 154.796 435.278 154.834C435.353 154.844 437.125 155.124 438.108 157.399C438.196 157.601 438.372 157.717 438.553 157.717Z" fill="#263238"/>
<path d="M434.762 164.028C434.762 164.028 432.89 168.017 431.105 169.816C432.086 171.175 434.029 170.896 434.029 170.896L434.762 164.028Z" fill="#630F0F"/>
<path d="M435.692 162.462C435.588 163.437 435.06 164.162 434.51 164.083C433.962 164.005 433.601 163.15 433.705 162.177C433.809 161.203 434.337 160.477 434.887 160.556C435.434 160.634 435.796 161.487 435.692 162.462Z" fill="#263238"/>
<path d="M435.122 160.644L433.178 159.681C433.178 159.68 434.018 161.655 435.122 160.644Z" fill="#263238"/>
<path d="M457.011 545.042L446.798 547.81L440.591 520.555L450.804 517.787L457.011 545.042Z" fill="#FF8B7B"/>
<path d="M472.694 553.013H462.206L463.029 524.836H473.517L472.694 553.013Z" fill="#FF8B7B"/>
<path d="M461.374 551.604H473.157C473.585 551.604 473.934 551.95 473.994 552.435L475.336 563.25C475.475 564.372 474.643 565.434 473.654 565.415C469.546 565.333 467.567 565.053 462.385 565.053C459.197 565.053 454.539 565.436 450.138 565.436C445.832 565.436 445.501 560.385 447.334 559.93C455.553 557.878 456.852 555.05 459.621 552.353C460.121 551.867 460.747 551.604 461.374 551.604Z" fill="#263238"/>
<path d="M445.892 545.994L456.597 540.281C456.986 540.073 457.427 540.218 457.656 540.63L462.772 549.804C463.303 550.756 462.93 552.124 462.024 552.585C458.262 554.503 456.363 555.208 451.655 557.72C448.758 559.266 442.906 562.811 438.906 564.946C434.995 567.033 432.875 562.605 434.375 561.301C441.104 555.452 443.023 551.315 444.567 547.521C444.848 546.84 445.323 546.299 445.892 545.994Z" fill="#263238"/>
<path d="M440.594 520.561L443.918 535.163L454.01 531.842L450.813 517.792L440.594 520.561Z" fill="black" fill-opacity="0.2"/>
<path d="M473.519 524.843H463.027L462.608 539.369H473.1L473.519 524.843Z" fill="black" fill-opacity="0.2"/>
<path d="M478.227 205.3C482.585 206.409 487.238 224.593 487.238 224.593L474.918 239.79C474.918 239.79 464.697 222.711 466.779 216.431C468.948 209.889 473.077 203.991 478.227 205.3Z" fill="#993D00"/>
<path d="M471.32 216.873C469.117 214.534 467.627 215.232 466.612 217.091C465.611 222.495 471.546 233.811 473.937 238.097C475.039 232.983 476.304 222.19 471.32 216.873Z" fill="black" fill-opacity="0.4"/>
<path d="M423.067 205.653C423.067 205.653 418.071 207.694 428.079 279.093C444.982 279.093 462.451 279.093 470.675 279.093C469.961 258.979 469.941 246.578 478.226 205.3C478.226 205.3 469.301 203.047 460.137 202.535C452.969 202.134 447.096 201.868 440.794 202.537C432.488 203.415 423.067 205.653 423.067 205.653Z" fill="#FF6600"/>
<path d="M422.687 233.056C422.963 236.528 423.326 240.436 423.802 244.852C427.29 241.207 430.142 230.841 429.098 224.792C426.657 226.897 424.403 230.151 422.687 233.056Z" fill="black" fill-opacity="0.4"/>
<path d="M427.234 222.232C424.916 229.023 422.363 235.477 419.492 241.923C416.625 248.36 413.563 254.685 409.494 260.801L408.693 261.944L408.293 262.515C408.156 262.706 408.047 262.876 407.826 263.139C407.052 264.131 406.212 264.98 405.353 265.692C403.628 267.118 401.846 268.026 400.118 268.725C396.657 270.076 393.311 270.554 390.05 270.782C383.505 271.089 377.314 270.385 371.069 268.826L371.764 262.716C374.641 262.733 377.66 262.66 380.57 262.446C383.495 262.269 386.39 261.906 389.167 261.332C391.938 260.793 394.618 259.973 396.854 258.845C397.957 258.271 398.916 257.584 399.621 256.888C399.977 256.542 400.255 256.187 400.478 255.848C400.524 255.799 400.637 255.607 400.732 255.452L401.025 254.973L401.611 254.018C404.697 248.723 407.405 242.571 409.992 236.422C412.532 230.244 414.984 223.839 417.284 217.588L427.234 222.232Z" fill="#FF8B7B"/>
<path d="M423.067 205.653C417.854 207.127 411.439 223.731 411.439 223.731L422.26 242.173C422.26 242.173 436.666 221.134 434.953 214.705C433.168 208.009 429.391 203.863 423.067 205.653Z" fill="#993D00"/>
<path d="M374.765 263.623L365.739 258.789L364.831 269.197C364.831 269.197 372.374 271.772 376.094 269.133L374.765 263.623Z" fill="#FF8B7B"/>
<path d="M360.333 257.737L359.472 265.664L364.833 269.199L365.739 258.789L360.333 257.737Z" fill="#FF8B7B"/>
<path d="M464.277 163.169C462.368 175.041 461.779 180.113 455.916 185.506C447.098 193.617 434.947 188.301 433.76 176.006C432.691 164.94 435.992 147.386 446.593 144.074C457.037 140.811 466.185 151.298 464.277 163.169Z" fill="#FF8B7B"/>
<path d="M441.8 165.671C441.215 171.724 440.99 187.451 452.452 187.944C466.5 188.55 470.705 174.628 469.452 169.06C476.756 162.159 477.813 150.295 469.6 141.216C461.387 132.137 443.305 137.213 438.253 146.058C431.992 157.023 441.8 165.671 441.8 165.671Z" fill="#263238"/>
<path d="M455.865 144.745C455.187 138.361 455.714 133.955 460.861 133.955C466.009 133.955 473.052 136.123 475.634 142.242C478.217 148.361 478.425 157.924 471.225 156.955C464.026 155.987 456.678 152.388 455.865 144.745Z" fill="#FF6600"/>
<path d="M463.849 143.211C462.622 135.595 468.471 114.163 482.739 112.77C489.348 112.124 492.408 120.376 488.947 121.736C495.19 121.648 499.214 131.25 493.374 132.695C497.991 136.116 496.842 143.156 490.268 146.606C485.422 149.148 465.547 153.75 463.849 143.211Z" fill="#263238"/>
<path d="M479.091 151.39C474.501 151.39 469.7 150.607 466.726 148.297C464.921 146.894 463.93 145.034 463.783 142.768C463.77 142.567 463.899 142.393 464.071 142.379C464.253 142.363 464.394 142.514 464.407 142.713C464.539 144.745 465.437 146.42 467.074 147.692C472.74 152.094 485.835 150.669 489.94 149.115C493.469 147.778 495.86 145.188 496.334 142.187C496.682 139.985 495.937 137.899 494.238 136.311C494.104 136.185 494.082 135.956 494.19 135.799C494.298 135.642 494.496 135.619 494.631 135.744C496.491 137.481 497.336 139.877 496.952 142.317C496.436 145.586 493.888 148.385 490.136 149.806C487.985 150.62 483.642 151.39 479.091 151.39Z" fill="#263238"/>
<path d="M438.605 164.067C437.347 166.088 436.985 168.599 437.263 170.626C437.68 173.672 440.241 173.875 442.094 171.922C443.762 170.164 445.556 166.459 444.19 163.935C442.844 161.445 440.043 161.757 438.605 164.067Z" fill="#FF8B7B"/>
<path d="M439.328 279.093C439.328 279.093 445.415 362.608 451.73 409.676C456.832 447.693 460.853 536.556 460.853 536.556H475.156C475.156 536.556 480.243 450.349 477.654 412.747C471.101 317.6 485.712 309.85 470.676 279.093H439.328Z" fill="#FF6600"/>
<path d="M457.333 310.658C451.56 317.5 447.165 325.679 443.822 334.307C445.487 353.076 447.466 373.907 449.569 392.153C456.081 373.08 461.654 343.735 457.333 310.658Z" fill="black" fill-opacity="0.4"/>
<path d="M429.317 278.565C429.317 278.565 416.113 369.777 414.026 410.891C419.213 448.909 440.425 529.263 440.425 529.263L453.435 523.795C453.435 523.795 446.238 436.171 438.368 412.182C455.986 343.366 468.933 325.973 465.166 279.092C456.181 279.092 429.317 278.565 429.317 278.565Z" fill="#FF6600"/>
<path d="M438.68 533.279L456.26 527.741L455.264 519.61L436.441 525.516L438.68 533.279Z" fill="#263238"/>
<path d="M458.897 536.884H477.114L478.071 529.47L458.793 528.713L458.897 536.884Z" fill="#263238"/>
<path d="M471.314 276.192L473.235 280.615C473.384 280.958 473.034 281.308 472.541 281.308L427.869 281.308C427.484 281.308 427.166 281.09 427.143 280.81L426.758 276.386C426.732 276.08 427.065 275.82 427.484 275.82H470.619C470.937 275.822 471.218 275.971 471.314 276.192Z" fill="#993D00"/>
<path d="M465.521 281.787H466.676C466.907 281.787 467.082 281.649 467.066 281.481L466.524 275.734C466.507 275.565 466.307 275.429 466.077 275.429L464.921 275.429C464.69 275.429 464.515 275.567 464.531 275.734L465.074 281.481C465.089 281.651 465.29 281.787 465.521 281.787Z" fill="#407BFF"/>
<path d="M450.013 239.455C449.731 239.455 449.482 239.236 449.41 238.919C445.324 221.409 436.833 207.007 432.784 204.786C432.33 204.537 431.955 204.466 431.728 204.584C431.41 204.749 431.042 204.585 430.899 204.219C430.758 203.853 430.898 203.423 431.212 203.259C431.797 202.953 432.504 203.025 433.318 203.471C437.641 205.842 446.206 220.079 450.49 237.998C453.561 237.953 458.297 237.509 459.439 237.397C460.87 235.424 471.371 220.199 467.442 203.543C467.35 203.156 467.547 202.757 467.881 202.651C468.212 202.545 468.558 202.771 468.65 203.159C473.022 221.698 460.342 238.412 460.214 238.579C460.108 238.718 459.96 238.803 459.802 238.819C459.74 238.826 453.495 239.455 450.013 239.455Z" fill="#993D00"/>
<path d="M470.755 249.724C463.929 234.881 461.138 233.843 459.917 229.071C459.917 229.071 461.017 225.469 463.809 221.821C462.972 221.551 461.2 221.14 460.088 220.891C460.214 220.242 460.343 219.6 460.469 218.984C459.547 218.686 457.632 218.993 456.653 219.183L456.609 217.719C456.609 217.719 453.148 216.913 451.757 217.361C451.896 218.037 452.036 218.74 452.177 219.453C450.959 219.726 449.015 220.176 448.097 220.473C450.755 223.946 451.715 227.655 451.921 228.57C448.245 235.899 433.942 283.06 457.2 286.606C480.473 290.153 477.579 264.567 470.755 249.724Z" fill="#BA4A00"/>
<path d="M451.052 227.166C450.879 227.525 450.896 228.891 450.869 229.436C450.843 229.981 452.095 230.344 453.504 230.495C454.912 230.646 460.73 230.919 460.547 230.163C460.364 229.406 460.834 228.377 460.86 227.741C460.886 227.104 458.539 227.076 456.581 227.166C454.624 227.255 451.444 226.348 451.052 227.166Z" fill="#993D00"/>
<path d="M437.517 281.787H438.673C438.904 281.787 439.079 281.649 439.063 281.481L438.521 275.734C438.504 275.565 438.304 275.429 438.074 275.429L436.918 275.429C436.687 275.429 436.512 275.567 436.528 275.734L437.071 281.481C437.087 281.651 437.287 281.787 437.517 281.787Z" fill="#FFA061"/>
</g>
<defs>
<clipPath id="clip0_27_330">
<rect width="725" height="598" fill="white"/>
</clipPath>
</defs>
</svg>
